<?xml version="1.0" encoding="utf-8"?>
<!-- Generator: Adobe Illustrator 17.1.0, SVG Export Plug-In . SVG Version: 6.00 Build 0)  -->
<!DOCTYPE svg PUBLIC "-//W3C//DTD SVG 1.1//EN" "http://www.w3.org/Graphics/SVG/1.1/DTD/svg11.dtd">
<svg version="1.1" id="Layer_1" xmlns="http://www.w3.org/2000/svg" xmlns:xlink="http://www.w3.org/1999/xlink" x="0px" y="0px"
	 viewBox="0 0 138.2 81" enable-background="new 0 0 138.2 81" xml:space="preserve">
<g>
	<polygon fill-rule="evenodd" clip-rule="evenodd" fill="#CC0000" points="19.1,15.7 27.7,1.9 26.9,10.8 39,0 35.8,8.3 50.3,1.4
		44.9,8.4 60.9,5.9 53.7,11.1 69.7,13.2 61.4,16.2 76.1,22.8 67.3,23.3 79.6,33.7 71,31.7 79.9,45.3 72.2,40.9 77,56.4 70.8,50
		71,66.2 66.9,58.4 62.5,74 60.8,65.3 52.3,79.1 53,70.2 41,81 44.2,72.7 29.6,79.6 35,72.6 19.1,75.1 26.2,69.8 10.2,67.8
		18.5,64.8 3.8,58.2 12.6,57.7 0.3,47.3 8.9,49.2 0,35.7 7.7,40.1 3,24.6 9.1,31 8.9,14.7 13.1,22.6 17.4,7 	"/>
	<polygon fill-rule="evenodd" clip-rule="evenodd" fill="#FFCC00" points="19,15.7 32,16.1 26.8,10.8 39.2,14.8 35.6,8.3 46.4,15.7
		44.8,8.4 53,18.6 53.6,11.1 58.6,23.2 61.2,16.2 62.7,29.3 67.1,23.3 64.9,36.2 70.8,31.7 65.1,43.5 72,40.9 63.2,50.6 70.6,50
		59.5,56.8 66.7,58.4 54.1,61.7 60.6,65.3 47.6,64.9 52.8,70.2 40.4,66.1 44,72.7 33.2,65.3 34.8,72.6 26.6,62.4 26,69.8 21,57.8
		18.4,64.8 16.9,51.7 12.5,57.7 14.7,44.8 8.8,49.2 14.5,37.5 7.6,40.1 16.4,30.4 9,31 20.1,24.2 12.9,22.6 25.5,19.3 	"/>
	<polygon fill-rule="evenodd" clip-rule="evenodd" fill="#FFFFFF" points="26.9,25 32.2,16.1 31.8,21.9 39.3,14.8 37.3,20.4
		46.5,15.7 43.1,20.5 53.2,18.6 48.5,22.1 58.8,23.2 53.3,25.3 62.8,29.3 57,29.7 65.1,36.2 59.3,35 65.2,43.5 60.1,40.7 63.4,50.6
		59.2,46.4 59.6,56.8 56.8,51.7 54.2,61.7 52.9,56 47.7,64.9 48.1,59 40.6,66.1 42.6,60.6 33.4,65.3 36.8,60.5 26.7,62.4 31.3,58.8
		21.1,57.8 26.6,55.7 17,51.7 22.9,51.2 14.8,44.8 20.5,46 14.6,37.5 19.8,40.2 16.5,30.4 20.7,34.5 20.3,24.2 23.1,29.3 25.6,19.3
			"/>
	<path fill="#FFFFFF" d="M129,34.2l0.1,2c1-1.5,2.5-2.2,4.5-2.2c1.1,0,2,0.3,2.8,0.9c0.8,0.6,1.3,1.4,1.6,2.4c0.2,0.7,0.3,2,0.3,3.8v6h-2.4v-5.8
		c0-1.6-0.1-2.7-0.2-3.2c-0.2-0.6-0.5-1.1-1-1.5c-0.5-0.3-1-0.5-1.7-0.5c-0.8,0-1.5,0.2-2.1,0.7c-0.6,0.5-1,1.1-1.3,1.9
		c-0.1,0.4-0.2,0.8-0.2,1.3c0,0.5-0.1,1.3-0.1,2.4V47h-2.4v-6.3l0-1.2l0-1.1l0-1.7l0-0.6l0-1.2l0-0.4l0-0.4H129z M90.9,37.2
		l-0.1-2.1c0.7-0.4,1.4-0.7,2.1-0.9c0.7-0.2,1.4-0.3,2.2-0.3c1.2,0,2.3,0.2,3.1,0.7c0.8,0.5,1.4,1.1,1.7,2c0.2,0.7,0.4,1.8,0.4,3.5
		v2.9c0,1.4,0,2.7,0.1,3.9h-2.2c0-0.3,0-0.7,0-1.1c0-0.4,0-0.8,0-1c-0.5,0.8-1.1,1.4-1.8,1.8c-0.7,0.4-1.6,0.6-2.6,0.6
		c-1.3,0-2.4-0.4-3.2-1.1c-0.8-0.7-1.2-1.6-1.2-2.8c0-0.7,0.1-1.3,0.4-1.8c0.3-0.5,0.7-1,1.3-1.3c0.6-0.4,1.3-0.6,2.1-0.8
		c0.8-0.2,1.8-0.3,2.9-0.3c0.4,0,1,0,1.8,0.1c0-1.1-0.3-1.9-0.8-2.4c-0.5-0.5-1.3-0.8-2.5-0.8c-0.5,0-0.9,0-1.3,0.1
		c-0.4,0.1-0.8,0.2-1.2,0.4C91.7,36.7,91.3,36.9,90.9,37.2z M97.9,41.2v-0.3c-0.5-0.1-1-0.1-1.3-0.1c-3.2,0-4.7,0.8-4.7,2.5
		c0,0.6,0.2,1,0.7,1.4c0.5,0.4,1.1,0.6,1.8,0.6c0.7,0,1.3-0.2,1.9-0.5c0.6-0.3,1-0.8,1.2-1.4c0.2-0.5,0.3-1.1,0.4-1.8
		C97.9,41.6,97.9,41.4,97.9,41.2z M107.3,30.5v3.7h3.4v1.9h-3.4v5c0,1.3,0,2.1,0.1,2.5c0.1,0.5,0.3,0.8,0.7,1.1
		c0.4,0.3,0.8,0.4,1.3,0.4c0.4,0,1-0.1,1.5-0.4v2c-0.8,0.2-1.6,0.4-2.2,0.4c-0.8,0-1.5-0.2-2.1-0.5c-0.6-0.3-1-0.7-1.3-1.3
		c-0.2-0.3-0.3-0.8-0.4-1.3c-0.1-0.5-0.1-1.3-0.1-2.2v-5.7h-3v-1.9h3v-2.9L107.3,30.5z M123.9,41.2h-9.2c0.2,1.3,0.6,2.3,1.4,3
		c0.8,0.7,1.7,1.1,2.9,1.1c0.7,0,1.3-0.1,2-0.3c0.7-0.2,1.3-0.5,2-0.9v2.3c-0.7,0.3-1.4,0.6-2.1,0.7c-0.6,0.1-1.3,0.2-2,0.2
		c-1.3,0-2.5-0.3-3.4-0.8c-1-0.6-1.7-1.3-2.3-2.4c-0.5-1-0.8-2.2-0.8-3.6c0-1.4,0.2-2.5,0.7-3.6c0.5-1,1.2-1.8,2.1-2.3
		c0.9-0.5,2-0.8,3.3-0.8c1.1,0,2.1,0.3,2.9,0.8c0.8,0.5,1.5,1.3,1.9,2.4c0.4,1,0.7,2.3,0.7,3.7C124,40.9,123.9,41.1,123.9,41.2z
		 M114.7,39.3h6.8c-0.3-2.4-1.4-3.6-3.3-3.6c-0.9,0-1.7,0.3-2.3,1C115.3,37.4,114.9,38.2,114.7,39.3z"/>
</g>
</svg>
